<svg width="42" height="33" viewBox="0 0 42 33" fill="none" xmlns="http://www.w3.org/2000/svg">
<path d="M40.9483 11.9288C38.8812 11.9381 31.3383 12.3688 25.7271 17.8573C23.3696 19.9737 21.9289 22.3787 21 24.6329C20.0711 22.3787 18.6304 19.9737 16.2729 17.8573C10.6617 12.3688 3.11875 11.9381 1.05167 11.9288C0.737768 11.9274 0.497178 12.1716 0.500025 12.4874C0.516397 14.4816 1.00825 21.4972 6.81872 26.7229C12.7993 32.5671 18.7222 32.5 21 32.5C23.2778 32.5 29.1993 32.5678 35.1813 26.7229C40.9925 21.4965 41.4836 14.4816 41.5 12.4874C41.5028 12.1716 41.2622 11.9274 40.9483 11.9288ZM20.9986 19.8287C21.9111 18.4823 22.9632 17.273 24.1369 16.2202C25.4958 14.8909 26.9542 13.8416 28.4263 12.9931C27.2561 7.95741 24.7448 3.48961 21.541 0.691783C21.2484 0.436072 20.7566 0.436072 20.4633 0.691783C17.2609 3.48746 14.7496 7.95098 13.5773 12.9823C15.0272 13.8181 16.4601 14.8495 17.7926 16.153C19.0055 17.2436 20.082 18.4778 20.9986 19.8287Z" fill="#777777"/>
</svg>
