<svg width="19" height="18" viewBox="0 0 19 18" fill="none" xmlns="http://www.w3.org/2000/svg">
<path d="M14.8906 17.7501C14.7591 17.7506 14.6307 17.7096 14.5238 17.6329L9.50001 13.9907L4.47618 17.6329C4.36885 17.7108 4.23954 17.7525 4.10695 17.752C3.97436 17.7515 3.84536 17.7089 3.7386 17.6302C3.63184 17.5516 3.55285 17.4411 3.51304 17.3146C3.47324 17.1881 3.4747 17.0523 3.51719 16.9267L5.47657 11.1232L0.398443 7.64073C0.288447 7.56539 0.205429 7.45684 0.161518 7.33095C0.117607 7.20506 0.115104 7.06843 0.154375 6.94102C0.193646 6.8136 0.272633 6.70209 0.379795 6.62276C0.486957 6.54344 0.616679 6.50046 0.750006 6.50011H7.01485L8.90547 0.681749C8.9462 0.556132 9.02567 0.446644 9.13248 0.368991C9.23929 0.291338 9.36795 0.249512 9.50001 0.249512C9.63206 0.249512 9.76072 0.291338 9.86753 0.368991C9.97434 0.446644 10.0538 0.556132 10.0945 0.681749L11.9852 6.50206H18.25C18.3835 6.502 18.5135 6.54467 18.621 6.62385C18.7285 6.70302 18.8078 6.81453 18.8473 6.94204C18.8868 7.06955 18.8845 7.20636 18.8406 7.33244C18.7967 7.45852 18.7137 7.56724 18.6035 7.64269L13.5234 11.1232L15.4816 16.9251C15.5134 17.019 15.5223 17.1192 15.5077 17.2172C15.4931 17.3153 15.4553 17.4085 15.3976 17.4891C15.3398 17.5697 15.2638 17.6354 15.1756 17.6808C15.0875 17.7262 14.9898 17.7499 14.8906 17.7501Z" fill="#DFC7B8"/>
</svg>
